<svg xmlns="http://www.w3.org/2000/svg" version="1.1" xmlns:xlink="http://www.w3.org/1999/xlink" xmlns:svgjs="http://svgjs.dev/svgjs" viewBox="0 0 640 800"><defs><filter id="uuunion-blur" x="-100%" y="-100%" width="400%" height="400%" color-interpolation-filters="sRGB">
        <feGaussianBlur in="SourceGraphic" stdDeviation="0 0" result="blur"></feGaussianBlur>
        <feDropShadow stdDeviation="46.769230769230774" in="blur" dx="38" dy="38" flood-color="hsl(258, 77%, 22%)" flood-opacity="0.99" x="0%" y="0%" width="100%" height="100%"></feDropShadow>
      </filter><filter id="uuunion-blur2" x="-100%" y="-100%" width="400%" height="400%" color-interpolation-filters="sRGB">
        <feGaussianBlur in="SourceGraphic" stdDeviation="0 0" result="blur"></feGaussianBlur>
        <feDropShadow stdDeviation="46.769230769230774" in="blur" dx="-38" dy="-38" flood-color="hsl(258, 77%, 22%)" flood-opacity="0.99" x="0%" y="0%" width="100%" height="100%"></feDropShadow>
      </filter><linearGradient gradientTransform="rotate(114, 0.5, 0.5)" x1="50%" y1="0%" x2="50%" y2="100%" id="uuunion-grad"><stop stop-color="hsl(262, 77%, 55%)" offset="10%"></stop><stop stop-color="hsl(258, 77%, 22%)" offset="90%"></stop></linearGradient><linearGradient gradientTransform="rotate(127, 0.5, 0.5)" x1="50%" y1="0%" x2="50%" y2="100%" id="uuunion-grad2"><stop stop-color="hsl(262, 77%, 55%)" offset="25%"></stop><stop stop-color="hsl(258, 77%, 22%)" offset="100%"></stop></linearGradient><linearGradient gradientTransform="rotate(326, 0.5, 0.5)" x1="50%" y1="0%" x2="50%" y2="100%" id="uuunion-grad3"><stop stop-color="hsl(262, 77%, 55%)" offset="0%"></stop><stop stop-color="hsl(258, 77%, 22%)" offset="75%"></stop></linearGradient></defs><path d="M-65.15 -76.66Q-53.28 -74.59 -41.41 -72.81 -29.54 -71.41 -17.68 -70.46 -5.81 -70.02 6.05 -70.11 17.92 -70.73 29.79 -71.83 41.66 -73.37 53.52 -75.25 65.39 -77.39 77.26 -79.67 89.13 -81.97 101 -84.16 112.86 -86.13 124.73 -87.77 136.6 -89 148.47 -89.76 160.34 -89.99 172.2 -89.7 184.07 -88.89 195.94 -87.61 207.81 -85.93 219.68 -83.93 231.54 -81.73 243.41 -79.43 255.28 -77.16 267.15 -75.04 279.02 -73.18 290.89 -71.69 302.75 -70.64 314.62 -70.08 326.49 -70.05 338.36 -70.54 350.23 -71.54 362.09 -72.98 373.96 -74.8 385.83 -76.89 397.7 -79.15 409.57 -81.45 421.43 -83.67 433.3 -85.7 445.17 -87.43 457.04 -88.76 468.91 -89.63 480.77 -89.99 492.64 -89.81 504.51 -89.12 516.38 -87.94 528.25 -86.34 540.12 -84.41 551.98 -82.24 563.85 -79.95 575.72 -77.66 587.59 -75.5 599.46 -73.58 611.32 -71.99 623.19 -70.83 635.06 -70.16 646.93 -70.01 658.8 -70.38 670.66 -71.27 682.53 -72.62 694.4 -74.36 695.24 -59.36 696.63 -44.36 698.51 -29.36 700.73 -14.36 703.16 0.63 705.65 15.63 708.03 30.63 710.15 45.63 711.88 60.63 713.1 75.63 713.73 90.63 713.74 105.63 713.12 120.63 711.91 135.63 710.2 150.63 708.09 165.63 705.71 180.63 703.22 195.63 700.79 210.63 698.55 225.63 696.67 240.63 695.26 255.63 694.41 270.63 694.18 285.63 694.58 300.63 695.58 315.63 697.13 330.63 699.11 345.63 701.41 360.63 703.88 375.63 706.35 390.63 708.67 405.63 710.69 420.63 712.28 435.63 713.34 450.63 713.8 465.63 713.63 480.63 712.83 495.63 711.47 510.63 709.63 525.63 707.43 540.63 705 555.63 702.51 570.63 700.12 585.63 697.97 600.63 696.22 615.63 694.96 630.63 694.28 645.63 694.23 660.63 694.81 675.63 695.97 690.63 697.65 705.63 699.74 720.63 702.11 735.63 704.59 750.63 707.04 765.63 709.29 780.63 711.2 795.63 712.65 810.63 713.54 825.63 713.81 840.63 713.46 855.63 712.5 870.63 710.99 885.63 698.89 887.37 686.8 888.72 674.7 889.61 662.6 889.98 650.51 889.83 638.41 889.16 626.32 888 614.22 886.41 602.12 884.49 590.03 882.33 577.93 880.04 565.84 877.75 553.74 875.58 541.64 873.65 529.55 872.05 517.45 870.87 505.35 870.18 493.26 870 481.16 870.36 469.07 871.23 456.97 872.56 444.87 874.29 432.78 876.32 420.68 878.54 408.59 880.84 396.49 883.1 384.39 885.19 372.3 887.01 360.2 888.45 348.1 889.45 336.01 889.94 323.91 889.91 311.82 889.35 299.72 888.3 287.62 886.81 275.53 884.95 263.43 882.83 251.34 880.56 239.24 878.26 227.14 876.06 215.05 874.06 202.95 872.38 190.85 871.1 178.76 870.29 166.66 870 154.57 870.23 142.47 870.99 130.37 872.22 118.28 873.86 106.18 875.83 94.09 878.02 81.99 880.32 69.89 882.6 57.8 884.74 45.7 886.62 33.6 888.16 21.51 889.26 9.41 889.88 -2.67 889.97 -14.77 889.53 -26.87 888.58 -38.96 887.18 -51.06 885.4 -63.15 883.33 -62.97 868.33 -62.86 853.33 -62.82 838.33 -62.85 823.33 -62.96 808.33 -63.13 793.33 -63.36 778.33 -63.63 763.33 -63.92 748.33 -64.22 733.33 -64.51 718.33 -64.76 703.33 -64.96 688.33 -65.1 673.33 -65.17 658.33 -65.16 643.33 -65.08 628.33 -64.93 613.33 -64.72 598.33 -64.46 583.33 -64.17 568.33 -63.87 553.33 -63.58 538.33 -63.32 523.33 -63.1 508.33 -62.93 493.33 -62.84 478.33 -62.82 463.33 -62.87 448.33 -63 433.33 -63.19 418.33 -63.43 403.33 -63.71 388.33 -64.01 373.33 -64.31 358.33 -64.58 343.33 -64.82 328.33 -65.01 313.33 -65.13 298.33 -65.17 283.33 -65.15 268.33 -65.04 253.33 -64.87 238.33 -64.65 223.33 -64.38 208.33 -64.09 193.33 -63.79 178.33 -63.5 163.33 -63.25 148.33 -63.04 133.33 -62.9 118.33 -62.82 103.33 -62.82 88.33 -62.9 73.33 -63.05 58.33 -63.25 43.33 -63.51 28.33 -63.8 13.33 -64.09 -1.66 -64.39 -16.66 -64.65 -31.66 -64.88 -46.66 -65.05 -61.66 -65.15 -76.66" fill="url(#uuunion-grad)"></path><path d="M-65.15 -76.66Q-65.05 -61.66 -64.88 -46.66 -64.65 -31.66 -64.39 -16.66 -64.09 -1.66 -63.8 13.33 -63.51 28.33 -63.25 43.33 -63.05 58.33 -62.9 73.33 -62.82 88.33 -62.82 103.33 -62.9 118.33 -63.04 133.33 -63.25 148.33 -63.5 163.33 -63.79 178.33 -64.09 193.33 -64.38 208.33 -64.65 223.33 -64.87 238.33 -65.04 253.33 -65.15 268.33 -65.17 283.33 -65.13 298.33 -65.01 313.33 -64.82 328.33 -64.58 343.33 -64.31 358.33 -64.01 373.33 -63.71 388.33 -63.43 403.33 -47.35 406.03 -31.26 408.16 -1.86 409.87 2.9 409.99 12.73 403.48 22.53 396.62 32.29 389.42 42.03 381.93 51.75 374.17 61.44 366.23 71.11 358.14 80.77 349.98 90.41 341.83 100.05 333.74 109.68 325.8 119.32 318.05 128.97 310.55 138.63 303.36 148.32 296.5 158.02 290 167.76 283.87 177.53 278.09 187.34 272.66 197.2 267.55 207.11 262.71 217.06 258.09 227.07 253.63 237.13 249.26 247.25 244.93 257.43 240.55 267.67 236.06 277.96 231.39 288.31 226.49 298.7 221.3 309.15 215.79 319.63 209.93 330.16 203.71 340.72 197.12 351.3 190.18 361.9 182.92 372.52 175.36 383.14 167.56 393.75 159.57 404.35 151.46 414.93 143.3 425.49 135.16 436 127.1 446.47 119.19 456.88 111.49 467.24 104.06 477.53 96.94 487.74 90.16 497.88 83.75 507.93 77.69 517.9 72 527.78 66.64 537.56 61.59 547.26 56.81 556.87 52.23 566.39 47.8 575.83 43.45 585.18 39.11 594.46 34.71 603.68 30.18 612.83 25.47 621.92 20.5 630.98 15.25 640 9.66 637.34 -7.83 634.91 -25.33 632.92 -42.83 631.56 -60.33 630.93 -77.83 631.09 -95.33 632.03 -112.83 633.67 -130.33 621.36 -131.21 609.05 -132.58 596.74 -134.38 584.43 -136.49 572.12 -138.81 559.81 -141.19 547.5 -143.5 535.19 -145.61 522.89 -147.41 510.58 -148.78 498.27 -149.66 485.96 -149.99 473.65 -149.76 461.34 -148.97 449.03 -147.67 436.72 -145.94 424.41 -143.87 412.1 -141.58 399.79 -139.2 387.48 -136.87 375.17 -134.71 362.87 -132.86 350.56 -131.4 338.25 -130.44 325.94 -130.01 313.63 -130.15 301.32 -130.85 289.01 -132.07 276.7 -133.73 264.39 -135.76 252.08 -138.02 239.77 -140.39 227.46 -142.74 215.16 -144.93 202.85 -146.85 190.54 -148.38 178.23 -149.43 165.92 -149.95 153.61 -149.9 141.3 -149.29 128.99 -148.16 116.68 -146.56 104.37 -144.59 92.06 -142.37 79.75 -140 67.44 -137.64 55.14 -135.41 42.83 -133.44 30.52 -131.84 18.21 -130.7 5.9 -130.09 -6.4 -130.04 -18.71 -130.56 -31.02 -131.61 -43.33 -133.13 -55.64 -135.04 -67.95 -137.24 -80.26 -139.59 -92.57 -141.96 -104.87 -144.22 -117.18 -146.24 -129.49 -147.91 -142.39 -145.43 -131.85 -133.18 -120.74 -124.25 -109.64 -115.01 -98.53 -105.54 -87.42 -95.92 -76.29 -86.26 -65.15 -76.66" fill="url(#uuunion-grad2)" filter="url(#uuunion-blur)"></path><path d="M644.33 409.66Q660.42 409.98 676.5 409.37 692.59 407.87 708.67 405.63 710.69 420.63 712.28 435.63 713.34 450.63 713.8 465.63 713.63 480.63 712.83 495.63 711.47 510.63 709.63 525.63 707.43 540.63 705 555.63 702.51 570.63 700.12 585.63 697.97 600.63 696.22 615.63 694.96 630.63 694.28 645.63 694.23 660.63 694.81 675.63 695.97 690.63 697.65 705.63 699.74 720.63 702.11 735.63 704.59 750.63 707.04 765.63 709.29 780.63 711.2 795.63 712.65 810.63 713.54 825.63 713.81 840.63 713.46 855.63 712.5 870.63 710.99 885.63 699.89 887.24 688.78 888.53 677.68 889.43 666.57 889.92 655.47 889.96 644.37 889.55 633.26 888.72 622.16 887.5 611.05 885.94 599.95 884.11 588.85 882.11 577.74 880 566.64 877.9 555.53 875.89 544.43 874.07 533.33 872.51 522.22 871.28 511.12 870.44 500.02 870.03 488.91 870.07 477.81 870.55 466.7 871.45 455.6 872.74 444.5 874.35 433.39 876.21 422.29 878.24 411.18 880.35 400.08 882.44 388.98 884.42 377.87 886.21 366.77 887.72 355.66 888.88 344.56 889.65 333.46 889.98 322.35 889.87 311.25 889.31 300.15 888.34 289.04 887 277.94 885.34 266.83 883.45 255.73 881.4 244.63 879.28 233.52 877.2 222.42 875.25 211.31 873.5 200.21 872.05 189.11 870.95 178 870.26 166.9 870 155.79 870.18 144.69 870.81 133.59 871.85 122.48 873.25 111.38 874.95 100.28 876.88 89.17 878.95 78.07 881.06 66.96 883.13 55.86 885.06 44.76 886.76 33.65 888.16 22.55 889.19 5.99 884.9 0.7 869.99 0.82 859.99 0.87 849.99 0.88 839.99 0.83 829.99 0.91 814.99 1.59 810 14.08 803.46 26.53 796.36 38.95 788.76 51.32 780.72 63.66 772.35 75.95 763.78 88.21 755.13 100.43 746.54 112.62 738.16 124.78 730.1 136.9 722.46 149.01 715.32 161.1 708.75 173.17 702.74 185.24 697.3 197.32 692.38 209.39 687.89 221.49 683.74 233.6 679.8 245.74 675.95 257.92 672.04 270.14 667.94 282.4 663.53 294.72 658.7 307.1 653.37 319.54 647.49 332.05 641.03 344.62 634.01 357.27 626.47 369.99 618.49 382.79 610.16 395.66 601.6 408.6 592.96 421.6 584.36 434.67 575.94 447.8 567.82 460.98 560.12 474.21 552.91 487.47 546.26 500.77 540.18 514.08 534.66 527.41 529.67 540.74 525.12 554.06 520.93 567.36 516.97 580.63 513.12 593.86 509.22 607.03 505.16 620.15 500.8 633.19 496.04 646.15 490.78 659.03 484.97 671.81 478.59 684.49 471.65 697.06 464.18 709.52 456.25 721.87 447.96 734.1 439.43 746.22 430.79 758.22 422.17 770.11 413.72 781.9 405.56 784.69 394.16 764.97 395.39 754.92 397.17 744.87 399.06 734.81 400.98 724.76 402.86 714.7 404.64 704.65 406.25 694.6 407.62 684.54 408.72 674.49 409.49 664.44 409.92 654.38 409.97 644.33 409.66" fill="url(#uuunion-grad3)" filter="url(#uuunion-blur2)"></path></svg>